<?xml version="1.0" encoding="UTF-8" standalone="no"?><!DOCTYPE svg PUBLIC "-//W3C//DTD SVG 1.1//EN" "http://www.w3.org/Graphics/SVG/1.1/DTD/svg11.dtd"><svg width="100%" height="100%" viewBox="0 0 1371 1369" version="1.1" xmlns="http://www.w3.org/2000/svg" xmlns:xlink="http://www.w3.org/1999/xlink" xml:space="preserve" xmlns:serif="http://www.serif.com/" style="fill-rule:evenodd;clip-rule:evenodd;stroke-linejoin:round;stroke-miterlimit:2;"><g id="Outer-Circles" serif:id="Outer Circles"><path d="M1230.1,270.148c-12.07,-15.858 -24.826,-31.183 -38.232,-45.929l-10.137,9.216c13.138,14.451 25.639,29.469 37.467,45.011l10.902,-8.298Z" style="fill:#2e2e2e;"/><path d="M1315.57,417.36c-15.581,-36.708 -34.338,-71.985 -56.056,-105.429l-11.49,7.462c21.284,32.775 39.666,67.346 54.935,103.32l12.611,-5.353Z" style="fill:#2e2e2e;"/><path d="M1002.01,77.763c-117.395,-61.284 -250.038,-87.225 -381.871,-74.684l1.297,13.639c129.197,-12.291 259.187,13.132 374.234,73.19l6.34,-12.145Z" style="fill:#2e2e2e;"/><path d="M1045.31,102.408c-6.779,-4.192 -13.631,-8.266 -20.552,-12.219l-6.795,11.896c6.783,3.875 13.497,7.867 20.141,11.975l7.206,-11.652Z" style="fill:#2e2e2e;"/><path d="M1363.8,777.099c10.743,-79.183 7.548,-159.634 -9.44,-237.714l-13.387,2.912c16.648,76.519 19.779,155.361 9.251,232.96l13.576,1.842Z" style="fill:#2e2e2e;"/><path d="M1346.75,862.041c3.09,-11.55 5.877,-23.179 8.358,-34.875l-13.402,-2.844c-2.432,11.463 -5.163,22.859 -8.191,34.178l13.235,3.541Z" style="fill:#2e2e2e;"/><path d="M1254.01,1066.42c31.105,-46.403 56.416,-96.435 75.37,-148.984l-12.887,-4.649c-18.576,51.498 -43.381,100.53 -73.863,146.005l11.38,7.628Z" style="fill:#2e2e2e;"/><path d="M1219.82,1113.04c4.981,-6.223 9.852,-12.533 14.612,-18.926l-10.988,-8.182c-4.665,6.265 -9.439,12.449 -14.32,18.547l10.696,8.561Z" style="fill:#2e2e2e;"/><path d="M1188.22,1149.78c5.408,-5.855 10.714,-11.804 15.914,-17.845l-10.382,-8.938c-5.097,5.919 -10.296,11.75 -15.596,17.488l10.064,9.295Z" style="fill:#2e2e2e;"/><path d="M1099.87,1230.11c25.381,-19.317 49.381,-40.382 71.826,-63.043l-9.734,-9.641c-21.996,22.208 -45.516,42.852 -70.389,61.782l8.297,10.902Z" style="fill:#2e2e2e;"/><path d="M795.33,1361.08c90.769,-14.812 177.626,-47.75 255.391,-96.85l-7.314,-11.584c-76.21,48.118 -161.33,80.397 -250.283,94.913l2.206,13.521Z" style="fill:#2e2e2e;"/><path d="M1158.5,189.984c-5.761,-5.509 -11.616,-10.917 -17.565,-16.222l-9.119,10.225c5.83,5.198 11.569,10.499 17.214,15.898l9.47,-9.901Z" style="fill:#2e2e2e;"/><path d="M542.047,15.085c-19.49,4.159 -38.79,9.167 -57.844,15.009l4.016,13.098c18.673,-5.725 37.587,-10.633 56.687,-14.709l-2.859,-13.398Z" style="fill:#2e2e2e;"/><path d="M423.617,51.834c-22.107,9.126 -43.721,19.404 -64.753,30.791l6.523,12.048c20.612,-11.16 41.793,-21.232 63.458,-30.176l-5.228,-12.663Z" style="fill:#2e2e2e;"/><path d="M329.399,99.537c-6.813,4.138 -13.553,8.394 -20.217,12.767l7.517,11.454c6.531,-4.285 13.135,-8.457 19.812,-12.512l-7.112,-11.709Z" style="fill:#2e2e2e;"/><path d="M188.612,212.964c-30.232,31.791 -57.34,66.414 -80.95,103.39l11.547,7.373c23.138,-36.237 49.704,-70.166 79.331,-101.322l-9.928,-9.441Z" style="fill:#2e2e2e;"/><path d="M35.791,466.484c-3.814,11.332 -7.331,22.762 -10.547,34.277l13.195,3.685c3.152,-11.285 6.599,-22.486 10.336,-33.591l-12.984,-4.371Z" style="fill:#2e2e2e;"/><path d="M88.492,348.254c-3.919,6.941 -7.716,13.95 -11.39,21.024l12.158,6.314c3.601,-6.932 7.322,-13.8 11.162,-20.602l-11.93,-6.736Z" style="fill:#2e2e2e;"/><path d="M2.182,739.643c3.181,39.751 9.826,79.148 19.861,117.742l13.259,-3.447c-9.834,-37.823 -16.346,-76.432 -19.463,-115.387l-13.657,1.092Z" style="fill:#2e2e2e;"/><path d="M0.055,676.332c-0.151,11.955 0.01,23.913 0.485,35.86l13.689,-0.544c-0.465,-11.708 -0.623,-23.426 -0.475,-35.143l-13.699,-0.173Z" style="fill:#2e2e2e;"/><path d="M115.84,1066.17c31.084,46.416 67.728,88.856 109.118,126.373l9.201,-10.151c-40.562,-36.767 -76.474,-78.357 -106.936,-123.845l-11.383,7.623Z" style="fill:#2e2e2e;"/><path d="M724.287,1368.89c7.958,-0.457 15.907,-1.053 23.843,-1.788l-1.262,-13.641c-7.778,0.719 -15.568,1.303 -23.366,1.751l0.785,13.678Z" style="fill:#2e2e2e;"/><path d="M52.183,947.247c7.629,18.411 16.058,36.481 25.263,54.157l12.152,-6.328c-9.021,-17.323 -17.282,-35.031 -24.759,-53.073l-12.656,5.244Z" style="fill:#2e2e2e;"/><path d="M592.921,1363.8c7.899,1.071 15.815,2.005 23.746,2.8l1.367,-13.632c-7.773,-0.779 -15.531,-1.694 -23.271,-2.744l-1.842,13.576Z" style="fill:#2e2e2e;"/><path d="M465.524,1333.9c33.994,11.498 68.838,20.307 104.212,26.346l2.306,-13.505c-34.667,-5.918 -68.814,-14.551 -102.128,-25.819l-4.39,12.978Z" style="fill:#2e2e2e;"/><path d="M255.791,1218.87c6.212,4.994 12.511,9.88 18.893,14.654l8.207,-10.97c-6.255,-4.679 -12.428,-9.467 -18.516,-14.361l-8.584,10.677Z" style="fill:#2e2e2e;"/><path d="M341.575,1277.71c24.145,13.991 49.122,26.493 74.792,37.437l5.373,-12.603c-25.156,-10.725 -49.634,-22.977 -73.296,-36.688l-6.869,11.854Z" style="fill:#2e2e2e;"/></g></svg>