<?xml version="1.0" encoding="UTF-8" standalone="no"?><!DOCTYPE svg PUBLIC "-//W3C//DTD SVG 1.1//EN" "http://www.w3.org/Graphics/SVG/1.1/DTD/svg11.dtd"><svg width="100%" height="100%" viewBox="0 0 1490 1492" version="1.1" xmlns="http://www.w3.org/2000/svg" xmlns:xlink="http://www.w3.org/1999/xlink" xml:space="preserve" xmlns:serif="http://www.serif.com/" style="fill-rule:evenodd;clip-rule:evenodd;stroke-linejoin:round;stroke-miterlimit:2;"><g id="Outer-Circles" serif:id="Outer Circles"><path d="M743.96,-0c-21.697,-0 -43.384,0.947 -64.999,2.838l1.95,22.288c20.966,-1.834 42.003,-2.753 63.049,-2.753l0,-22.373Z" style="fill:#616161;"/><path d="M927.845,23.025c-42.075,-10.704 -85.004,-17.715 -128.298,-20.951l-1.668,22.312c41.995,3.138 83.637,9.938 124.449,20.322l5.517,-21.683Z" style="fill:#616161;"/><path d="M426.895,70.756c-130.498,61.297 -240.43,159.105 -316.491,281.587l19.007,11.803c73.778,-118.807 180.413,-213.682 306.996,-273.139l-9.512,-20.251Z" style="fill:#616161;"/><path d="M476.793,49.498c-8.102,3.108 -16.149,6.358 -24.137,9.748l8.739,20.596c7.749,-3.288 15.554,-6.441 23.413,-9.456l-8.015,-20.888Z" style="fill:#616161;"/><path d="M1271.3,218.433c-61.516,-61.516 -133.32,-111.793 -212.165,-148.56l-9.456,20.278c76.48,35.663 146.13,84.432 205.8,144.102l15.821,-15.82Z" style="fill:#616161;"/><path d="M1333.65,289.213c-7.969,-10.292 -16.206,-20.374 -24.703,-30.236l-16.95,14.604c8.242,9.566 16.232,19.345 23.962,29.329l17.691,-13.697Z" style="fill:#616161;"/><path d="M1449.57,504.313c-19.692,-57.542 -46.348,-112.46 -79.375,-163.529l-18.787,12.15c32.036,49.537 57.893,102.807 76.994,158.623l21.168,-7.244Z" style="fill:#616161;"/><path d="M1467.41,564.674c-2.107,-8.418 -4.361,-16.799 -6.761,-25.138l-21.501,6.187c2.328,8.089 4.515,16.218 6.559,24.384l21.703,-5.433Z" style="fill:#616161;"/><path d="M1478.41,616.274c-1.507,-8.546 -3.163,-17.065 -4.967,-25.553l-21.885,4.652c1.75,8.233 3.357,16.496 4.818,24.786l22.034,-3.885Z" style="fill:#616161;"/><path d="M1489.74,745.777c-0,-34.724 -2.425,-69.406 -7.258,-103.792l-22.156,3.113c4.688,33.355 7.04,66.996 7.04,100.679l22.374,-0Z" style="fill:#616161;"/><path d="M1402.4,1095.97c47.017,-88.403 75.751,-185.368 84.489,-285.113l-22.288,-1.953c-8.476,96.754 -36.348,190.81 -81.954,276.56l19.753,10.506Z" style="fill:#616161;"/><path d="M627.295,9.182c-8.571,1.357 -17.118,2.864 -25.636,4.52l4.269,21.962c8.263,-1.606 16.553,-3.068 24.867,-4.384l-3.5,-22.098Z" style="fill:#616161;"/><path d="M69.315,427.913c-9.247,19.627 -17.634,39.649 -25.136,60.008l20.993,7.736c7.277,-19.748 15.412,-39.17 24.383,-58.209l-20.24,-9.535Z" style="fill:#616161;"/><path d="M23.065,554.743c-6.669,25.17 -12.017,50.672 -16.019,76.401l22.107,3.439c3.883,-24.957 9.069,-49.694 15.539,-74.109l-21.627,-5.731Z" style="fill:#616161;"/><path d="M2.269,667.822c-0.907,8.63 -1.664,17.275 -2.269,25.932l22.319,1.561c0.587,-8.397 1.321,-16.783 2.2,-25.155l-22.25,-2.338Z" style="fill:#616161;"/><path d="M7.707,864.579c7.608,47.153 19.729,93.466 36.195,138.301l21.002,-7.713c-15.972,-43.49 -27.729,-88.414 -35.11,-134.152l-22.087,3.564Z" style="fill:#616161;"/><path d="M126.578,1164.13c7.302,10.776 14.885,21.359 22.741,31.738l17.839,-13.503c-7.62,-10.067 -14.976,-20.333 -22.059,-30.785l-18.521,12.55Z" style="fill:#616161;"/><path d="M58.899,1040.52c3.43,7.972 6.998,15.883 10.704,23.729l20.231,-9.554c-3.595,-7.611 -7.056,-15.285 -10.383,-23.017l-20.552,8.842Z" style="fill:#616161;"/><path d="M341.066,1373.36c36.534,23.454 75.047,43.673 115.099,60.427l8.634,-20.64c-38.851,-16.251 -76.208,-35.864 -111.647,-58.615l-12.086,18.828Z" style="fill:#616161;"/><path d="M284.814,1333.46c10.258,8.014 20.723,15.758 31.386,23.224l12.833,-18.327c-10.343,-7.242 -20.495,-14.754 -30.445,-22.528l-13.774,17.631Z" style="fill:#616161;"/><path d="M698.89,1490.19c60.707,3.676 121.636,-0.089 181.429,-11.209l-4.091,-21.996c-57.999,10.787 -117.1,14.438 -175.986,10.873l-1.352,22.332Z" style="fill:#616161;"/><path d="M1362.33,1162.67c4.851,-7.195 9.576,-14.475 14.173,-21.835l-18.977,-11.852c-4.458,7.14 -9.042,14.201 -13.747,21.18l18.551,12.507Z" style="fill:#616161;"/><path d="M553.889,1466.93c20.981,5.529 42.193,10.141 63.575,13.821l3.795,-22.049c-20.741,-3.57 -41.317,-8.043 -61.668,-13.407l-5.702,21.635Z" style="fill:#616161;"/><path d="M1271.3,1273.12c6.136,-6.136 12.164,-12.378 18.083,-18.725l-16.363,-15.258c-5.741,6.156 -11.589,12.211 -17.541,18.163l15.821,15.82Z" style="fill:#616161;"/><path d="M1161.4,1363.78c32.375,-21.869 62.982,-46.248 91.537,-72.912l-15.269,-16.352c-27.699,25.864 -57.387,49.511 -88.791,70.724l12.523,18.54Z" style="fill:#616161;"/><path d="M923.458,1469.63c8.423,-2.089 16.809,-4.324 25.153,-6.706l-6.139,-21.514c-8.095,2.31 -16.229,4.478 -24.399,6.504l5.385,21.716Z" style="fill:#616161;"/><path d="M1030.99,1434.11c28.04,-11.693 55.34,-25.088 81.747,-40.111l-11.064,-19.447c-25.614,14.572 -52.095,27.566 -79.294,38.908l8.611,20.65Z" style="fill:#616161;"/></g></svg>