<?xml version="1.0" encoding="UTF-8" standalone="no"?><!DOCTYPE svg PUBLIC "-//W3C//DTD SVG 1.1//EN" "http://www.w3.org/Graphics/SVG/1.1/DTD/svg11.dtd"><svg width="100%" height="100%" viewBox="0 0 2504 1880" version="1.1" xmlns="http://www.w3.org/2000/svg" xmlns:xlink="http://www.w3.org/1999/xlink" xml:space="preserve" xmlns:serif="http://www.serif.com/" style="fill-rule:evenodd;clip-rule:evenodd;stroke-linecap:square;"><rect x="0" y="0" width="2503.83" height="1879.13" style="fill:#02000c;"/><path d="M1411.19,334.797c-106.095,-27.932 -217.673,-27.446 -323.52,1.412l164.394,602.992l159.126,-604.404Z" style="fill-opacity:0.7;stroke:#696969;stroke-width:3.12px;stroke-dasharray:0.78,7.81,0,0;"/><path d="M1340.09,598.836c-59.746,-15.451 -122.507,-14.903 -181.975,1.588l93.951,338.777l88.024,-340.365Z" style="fill:#5175ec;fill-opacity:0.7;stroke:#696969;stroke-width:3.13px;stroke-dasharray:0.78,7.81,0,0;"/><path d="M1516.2,372.758c-167.437,-78.076 -360.837,-78.076 -528.273,0l264.136,566.443l264.137,-566.443Z" style="fill:#4ebff8;fill-opacity:0.7;stroke:#696969;stroke-width:3.12px;stroke-dasharray:0.78,7.81,0,0;"/><path d="M1491.6,361.922c-153.104,-63.527 -325.173,-63.632 -478.354,-0.292l30.999,74.969c133.299,-55.119 283.033,-55.027 416.264,0.254l31.091,-74.931Z" style="fill:#dbdbdb;fill-opacity:0.7;"/><path d="M1326.27,476.361c-51.279,-8.221 -103.567,-7.863 -154.728,1.059l80.528,461.781l74.2,-462.84Z" style="fill:#1b1b92;fill-opacity:0.7;stroke:#676767;stroke-width:3.13px;stroke-dasharray:0.78,7.81,0,0;"/><path d="M1589.72,413.257c-207.722,-133.356 -474.475,-131.959 -680.789,3.564l26.509,40.357c190.376,-125.054 436.52,-126.343 628.195,-3.29l26.085,-40.631Z" style="fill:#dbdbdb;fill-opacity:0.7;"/><path d="M1527.15,512.351c-168.585,-108.646 -385.323,-107.89 -553.145,1.93l27.906,42.646c150.98,-98.799 345.966,-99.479 497.632,-1.737l27.607,-42.839Z" style="fill:#ec8b57;fill-opacity:0.7;"/><g id="Outer-Circles" serif:id="Outer Circles"><path d="M1800.29,524.339c-12.07,-15.859 -24.826,-31.183 -38.232,-45.929l-10.137,9.215c13.138,14.452 25.639,29.47 37.467,45.011l10.902,-8.297Z" style="fill:#2e2e2e;"/><path d="M1885.75,671.55c-15.581,-36.707 -34.338,-71.984 -56.057,-105.428l-11.49,7.461c21.285,32.776 39.666,67.347 54.936,103.32l12.611,-5.353Z" style="fill:#2e2e2e;"/><path d="M1572.19,331.954c-117.396,-61.284 -250.038,-87.225 -381.872,-74.684l1.297,13.638c129.198,-12.29 259.187,13.133 374.235,73.191l6.34,-12.145Z" style="fill:#2e2e2e;"/><path d="M1615.49,356.599c-6.779,-4.192 -13.63,-8.266 -20.552,-12.219l-6.795,11.896c6.783,3.874 13.498,7.866 20.141,11.975l7.206,-11.652Z" style="fill:#2e2e2e;"/><path d="M1933.98,1031.29c10.742,-79.182 7.547,-159.633 -9.44,-237.714l-13.387,2.913c16.647,76.519 19.778,155.361 9.251,232.96l13.576,1.841Z" style="fill:#2e2e2e;"/><path d="M1916.93,1116.23c3.09,-11.551 5.877,-23.18 8.358,-34.876l-13.402,-2.843c-2.431,11.462 -5.162,22.859 -8.191,34.178l13.235,3.541Z" style="fill:#2e2e2e;"/><path d="M1824.19,1320.61c31.104,-46.402 56.415,-96.435 75.37,-148.983l-12.888,-4.649c-18.575,51.498 -43.38,100.53 -73.862,146.004l11.38,7.628Z" style="fill:#2e2e2e;"/><path d="M1790.01,1367.24c4.98,-6.223 9.852,-12.533 14.612,-18.926l-10.988,-8.182c-4.666,6.265 -9.44,12.448 -14.321,18.547l10.697,8.561Z" style="fill:#2e2e2e;"/><path d="M1758.4,1403.97c5.408,-5.855 10.713,-11.804 15.914,-17.845l-10.383,-8.939c-5.096,5.92 -10.295,11.75 -15.595,17.489l10.064,9.295Z" style="fill:#2e2e2e;"/><path d="M1670.05,1484.3c25.38,-19.316 49.38,-40.382 71.825,-63.042l-9.734,-9.641c-21.996,22.207 -45.516,42.851 -70.388,61.781l8.297,10.902Z" style="fill:#2e2e2e;"/><path d="M1365.51,1615.27c90.769,-14.812 177.625,-47.75 255.391,-96.85l-7.314,-11.585c-76.211,48.119 -161.33,80.398 -250.283,94.913l2.206,13.522Z" style="fill:#2e2e2e;"/><path d="M1728.68,444.175c-5.76,-5.509 -11.616,-10.918 -17.565,-16.223l-9.118,10.225c5.83,5.199 11.569,10.499 17.213,15.899l9.47,-9.901Z" style="fill:#2e2e2e;"/><path d="M1112.23,269.275c-19.491,4.16 -38.79,9.168 -57.844,15.01l4.016,13.098c18.673,-5.725 37.586,-10.633 56.687,-14.709l-2.859,-13.399Z" style="fill:#2e2e2e;"/><path d="M993.799,306.024c-22.107,9.127 -43.721,19.405 -64.753,30.792l6.523,12.048c20.611,-11.16 41.793,-21.232 63.458,-30.176l-5.228,-12.664Z" style="fill:#2e2e2e;"/><path d="M899.58,353.728c-6.812,4.137 -13.552,8.394 -20.216,12.767l7.516,11.454c6.531,-4.286 13.136,-8.457 19.812,-12.512l-7.112,-11.709Z" style="fill:#2e2e2e;"/><path d="M758.794,467.155c-30.232,31.791 -57.34,66.413 -80.951,103.39l11.547,7.373c23.138,-36.237 49.704,-70.167 79.332,-101.323l-9.928,-9.44Z" style="fill:#2e2e2e;"/><path d="M605.973,720.675c-3.815,11.332 -7.331,22.761 -10.547,34.277l13.195,3.685c3.152,-11.285 6.598,-22.486 10.336,-33.591l-12.984,-4.371Z" style="fill:#2e2e2e;"/><path d="M658.673,602.445c-3.918,6.941 -7.715,13.95 -11.389,21.023l12.158,6.315c3.6,-6.932 7.321,-13.801 11.161,-20.603l-11.93,-6.735Z" style="fill:#2e2e2e;"/><path d="M572.364,993.834c3.18,39.751 9.826,79.147 19.86,117.742l13.26,-3.448c-9.834,-37.822 -16.347,-76.431 -19.464,-115.387l-13.656,1.093Z" style="fill:#2e2e2e;"/><path d="M570.237,930.523c-0.152,11.955 0.01,23.912 0.484,35.859l13.689,-0.543c-0.465,-11.708 -0.623,-23.427 -0.474,-35.143l-13.699,-0.173Z" style="fill:#2e2e2e;"/><path d="M686.021,1320.36c31.084,46.416 67.729,88.855 109.119,126.373l9.201,-10.151c-40.562,-36.767 -76.474,-78.357 -106.936,-123.845l-11.384,7.623Z" style="fill:#2e2e2e;"/><path d="M1294.47,1623.08c7.957,-0.458 15.906,-1.053 23.843,-1.788l-1.262,-13.642c-7.778,0.72 -15.568,1.304 -23.367,1.752l0.786,13.678Z" style="fill:#2e2e2e;"/><path d="M622.364,1201.44c7.63,18.411 16.059,36.48 25.264,54.157l12.151,-6.328c-9.021,-17.323 -17.281,-35.031 -24.758,-53.074l-12.657,5.245Z" style="fill:#2e2e2e;"/><path d="M1163.1,1617.99c7.898,1.072 15.814,2.005 23.745,2.801l1.367,-13.632c-7.772,-0.779 -15.53,-1.694 -23.27,-2.744l-1.842,13.575Z" style="fill:#2e2e2e;"/><path d="M1035.71,1588.1c33.993,11.498 68.838,20.307 104.212,26.346l2.305,-13.505c-34.666,-5.918 -68.814,-14.551 -102.127,-25.819l-4.39,12.978Z" style="fill:#2e2e2e;"/><path d="M825.973,1473.06c6.211,4.994 12.51,9.88 18.893,14.654l8.206,-10.97c-6.255,-4.679 -12.427,-9.467 -18.515,-14.362l-8.584,10.678Z" style="fill:#2e2e2e;"/><path d="M911.757,1531.9c24.145,13.991 49.122,26.493 74.792,37.436l5.373,-12.602c-25.157,-10.725 -49.634,-22.977 -73.296,-36.688l-6.869,11.854Z" style="fill:#2e2e2e;"/></g><g id="Outer-Circles1" serif:id="Outer Circles"><path d="M1255.19,193.424c-21.697,0 -43.384,0.947 -64.999,2.838l1.95,22.288c20.967,-1.834 42.003,-2.753 63.049,-2.753l0,-22.373Z" style="fill:#2e2e2e;"/><path d="M1439.08,216.45c-42.075,-10.705 -85.004,-17.715 -128.298,-20.951l-1.668,22.311c41.996,3.138 83.637,9.938 124.449,20.322l5.517,-21.682Z" style="fill:#2e2e2e;"/><path d="M938.126,264.18c-130.498,61.297 -240.43,159.105 -316.49,281.587l19.006,11.803c73.779,-118.807 180.413,-213.682 306.996,-273.139l-9.512,-20.251Z" style="fill:#2e2e2e;"/><path d="M988.024,242.922c-8.102,3.108 -16.149,6.358 -24.137,9.748l8.739,20.596c7.749,-3.288 15.554,-6.44 23.413,-9.456l-8.015,-20.888Z" style="fill:#2e2e2e;"/><path d="M1782.54,411.857c-61.515,-61.515 -133.32,-111.793 -212.165,-148.559l-9.455,20.277c76.479,35.663 146.13,84.432 205.8,144.102l15.82,-15.82Z" style="fill:#2e2e2e;"/><path d="M1844.88,482.638c-7.969,-10.293 -16.206,-20.375 -24.703,-30.237l-16.949,14.604c8.241,9.566 16.231,19.346 23.961,29.329l17.691,-13.696Z" style="fill:#2e2e2e;"/><path d="M1960.8,697.737c-19.691,-57.542 -46.348,-112.46 -79.375,-163.529l-18.787,12.15c32.037,49.537 57.893,102.807 76.994,158.623l21.168,-7.244Z" style="fill:#2e2e2e;"/><path d="M1978.64,758.098c-2.107,-8.418 -4.361,-16.799 -6.761,-25.138l-21.5,6.187c2.327,8.089 4.514,16.218 6.558,24.384l21.703,-5.433Z" style="fill:#2e2e2e;"/><path d="M1989.64,809.698c-1.507,-8.546 -3.163,-17.065 -4.967,-25.553l-21.884,4.652c1.75,8.233 3.356,16.497 4.818,24.786l22.033,-3.885Z" style="fill:#2e2e2e;"/><path d="M2000.97,939.201c-0,-34.724 -2.425,-69.406 -7.258,-103.792l-22.155,3.113c4.687,33.355 7.04,66.996 7.04,100.679l22.373,-0Z" style="fill:#2e2e2e;"/><path d="M1913.63,1289.39c47.016,-88.403 75.75,-185.367 84.488,-285.113l-22.288,-1.953c-8.476,96.754 -36.347,190.81 -81.954,276.56l19.754,10.506Z" style="fill:#2e2e2e;"/><path d="M1138.53,202.606c-8.571,1.357 -17.117,2.864 -25.636,4.52l4.269,21.962c8.263,-1.606 16.553,-3.068 24.867,-4.384l-3.5,-22.098Z" style="fill:#2e2e2e;"/><path d="M580.547,621.337c-9.248,19.627 -17.635,39.649 -25.137,60.008l20.994,7.736c7.276,-19.748 15.412,-39.17 24.382,-58.208l-20.239,-9.536Z" style="fill:#2e2e2e;"/><path d="M534.297,748.167c-6.67,25.17 -12.017,50.672 -16.02,76.401l22.108,3.439c3.882,-24.957 9.069,-49.694 15.538,-74.109l-21.626,-5.731Z" style="fill:#2e2e2e;"/><path d="M513.5,861.246c-0.907,8.63 -1.663,17.275 -2.269,25.932l22.319,1.561c0.587,-8.397 1.321,-16.783 2.201,-25.154l-22.251,-2.339Z" style="fill:#2e2e2e;"/><path d="M518.938,1058c7.609,47.153 19.729,93.466 36.196,138.301l21.001,-7.713c-15.972,-43.49 -27.729,-88.414 -35.109,-134.152l-22.088,3.564Z" style="fill:#2e2e2e;"/><path d="M637.809,1357.56c7.302,10.776 14.885,21.359 22.741,31.738l17.84,-13.502c-7.621,-10.068 -14.976,-20.334 -22.059,-30.786l-18.522,12.55Z" style="fill:#2e2e2e;"/><path d="M570.13,1233.95c3.43,7.971 6.998,15.882 10.704,23.728l20.231,-9.554c-3.595,-7.611 -7.056,-15.285 -10.383,-23.017l-20.552,8.843Z" style="fill:#2e2e2e;"/><path d="M852.297,1566.78c36.534,23.454 75.047,43.673 115.099,60.427l8.634,-20.64c-38.851,-16.251 -76.208,-35.864 -111.646,-58.615l-12.087,18.828Z" style="fill:#2e2e2e;"/><path d="M796.045,1526.88c10.258,8.014 20.723,15.758 31.386,23.224l12.833,-18.327c-10.343,-7.242 -20.495,-14.754 -30.444,-22.528l-13.775,17.631Z" style="fill:#2e2e2e;"/><path d="M1210.12,1683.61c60.707,3.676 121.636,-0.088 181.429,-11.208l-4.091,-21.997c-57.999,10.787 -117.1,14.438 -175.986,10.873l-1.352,22.332Z" style="fill:#2e2e2e;"/><path d="M1873.56,1356.09c4.851,-7.195 9.576,-14.475 14.173,-21.835l-18.976,-11.851c-4.459,7.139 -9.042,14.2 -13.748,21.179l18.551,12.507Z" style="fill:#2e2e2e;"/><path d="M1065.12,1660.35c20.981,5.53 42.193,10.141 63.576,13.821l3.794,-22.049c-20.741,-3.57 -41.317,-8.043 -61.668,-13.407l-5.702,21.635Z" style="fill:#2e2e2e;"/><path d="M1782.54,1466.55c6.136,-6.137 12.165,-12.379 18.083,-18.726l-16.363,-15.258c-5.741,6.156 -11.588,12.211 -17.54,18.163l15.82,15.821Z" style="fill:#2e2e2e;"/><path d="M1672.63,1557.2c32.375,-21.869 62.981,-46.248 91.537,-72.911l-15.27,-16.353c-27.698,25.864 -57.387,49.511 -88.791,70.724l12.524,18.54Z" style="fill:#2e2e2e;"/><path d="M1434.69,1663.05c8.422,-2.089 16.808,-4.324 25.152,-6.706l-6.139,-21.514c-8.094,2.31 -16.228,4.478 -24.398,6.504l5.385,21.716Z" style="fill:#2e2e2e;"/><path d="M1542.22,1627.53c28.041,-11.693 55.34,-25.088 81.747,-40.111l-11.063,-19.447c-25.615,14.572 -52.096,27.566 -79.295,38.908l8.611,20.65Z" style="fill:#2e2e2e;"/></g></svg>