<?xml version="1.0" encoding="UTF-8" standalone="no"?><!DOCTYPE svg PUBLIC "-//W3C//DTD SVG 1.1//EN" "http://www.w3.org/Graphics/SVG/1.1/DTD/svg11.dtd"><svg width="100%" height="100%" viewBox="0 0 1327 1329" version="1.1" xmlns="http://www.w3.org/2000/svg" xmlns:xlink="http://www.w3.org/1999/xlink" xml:space="preserve" xmlns:serif="http://www.serif.com/" style="fill-rule:evenodd;clip-rule:evenodd;stroke-linecap:square;"><path d="M805.164,1272.55c106.812,-25.052 205.147,-77.779 285.123,-152.881l-427.842,-455.606l142.719,608.487Z" style="fill-opacity:0.7;stroke:#696969;stroke-width:3.13px;stroke-dasharray:0.78,7.81,0,0;"/><path d="M508.33,348.08c-55.466,27.053 -102.835,68.23 -137.344,119.391l291.459,196.591l-154.115,-315.982Z" style="fill:#5175ec;fill-opacity:0.7;stroke:#696969;stroke-width:3.12px;stroke-dasharray:0.78,7.81,0,0;"/><path d="M1236.82,910.477c72.839,-169.781 66.831,-363.088 -16.409,-528.018l-557.964,281.604l574.373,246.414Z" style="fill:#4ebff8;fill-opacity:0.7;stroke:#696969;stroke-width:3.13px;stroke-dasharray:0.78,7.81,0,0;"/><path d="M662.445,39.062c-165.76,0 -324.732,65.849 -441.942,183.059l57.364,57.364c101.997,-101.997 240.333,-159.297 384.578,-159.297l-0,-81.126Z" style="fill:#dbdbdb;fill-opacity:0.7;"/><path d="M293.065,952.654c31.973,40.924 70.525,76.25 114.08,104.535l255.3,-393.126l-369.38,288.591Z" style="fill:#1b1b92;fill-opacity:0.7;stroke:#676767;stroke-width:3.13px;stroke-dasharray:0.78,7.81,0,0;"/><path d="M99.042,934.621c106.858,222.517 334.672,361.295 581.414,354.182l-1.391,-48.264c-227.68,6.564 -437.895,-121.493 -536.497,-326.82l-43.526,20.902Z" style="fill:#dbdbdb;fill-opacity:0.7;"/><path d="M1160.04,562.712c-40.029,-196.526 -191.977,-351.082 -387.794,-394.449l-11.02,49.759c176.164,39.014 312.863,178.059 348.875,354.862l49.939,-10.172Z" style="fill:#ec8b57;fill-opacity:0.7;"/><g id="Outer-Circles" serif:id="Outer Circles"><path d="M662.445,-0c-19.32,-0 -38.631,0.843 -57.877,2.527l1.736,19.846c18.669,-1.633 37.401,-2.451 56.141,-2.451l-0,-19.922Z" style="fill:#2e2e2e;"/><path d="M826.181,20.503c-37.464,-9.532 -75.69,-15.774 -114.24,-18.656l-1.485,19.867c37.394,2.795 74.473,8.849 110.813,18.095l4.912,-19.306Z" style="fill:#2e2e2e;"/><path d="M380.12,63.004c-116.199,54.58 -214.086,141.672 -281.813,250.733l16.925,10.51c65.694,-105.79 160.645,-190.269 273.358,-243.212l-8.47,-18.031Z" style="fill:#2e2e2e;"/><path d="M424.551,44.074c-7.214,2.768 -14.379,5.662 -21.492,8.68l7.781,18.339c6.9,-2.927 13.85,-5.734 20.848,-8.419l-7.137,-18.6Z" style="fill:#2e2e2e;"/><path d="M1132.01,194.499c-54.775,-54.775 -118.712,-99.544 -188.918,-132.282l-8.42,18.056c68.1,31.755 130.119,75.181 183.251,128.313l14.087,-14.087Z" style="fill:#2e2e2e;"/><path d="M1187.52,257.525c-7.096,-9.165 -14.431,-18.143 -21.996,-26.924l-15.093,13.004c7.339,8.518 14.454,17.226 21.337,26.116l15.752,-12.196Z" style="fill:#2e2e2e;"/><path d="M1290.74,449.056c-17.534,-51.238 -41.269,-100.138 -70.678,-145.611l-16.728,10.818c28.526,44.11 51.549,91.543 68.557,141.243l18.849,-6.45Z" style="fill:#2e2e2e;"/><path d="M1306.63,502.803c-1.877,-7.496 -3.884,-14.958 -6.02,-22.384l-19.145,5.509c2.072,7.203 4.019,14.442 5.839,21.713l19.326,-4.838Z" style="fill:#2e2e2e;"/><path d="M1316.42,548.749c-1.342,-7.609 -2.816,-15.195 -4.423,-22.753l-19.487,4.142c1.559,7.331 2.989,14.689 4.291,22.071l19.619,-3.46Z" style="fill:#2e2e2e;"/><path d="M1326.51,664.062c0,-30.919 -2.159,-61.801 -6.462,-92.419l-19.728,2.772c4.174,29.7 6.269,59.656 6.269,89.647l19.921,0Z" style="fill:#2e2e2e;"/><path d="M1248.74,975.885c41.865,-78.716 67.451,-165.057 75.231,-253.873l-19.846,-1.739c-7.547,86.152 -32.365,169.903 -72.974,246.257l17.589,9.355Z" style="fill:#2e2e2e;"/><path d="M558.563,8.176c-7.632,1.208 -15.242,2.55 -22.827,4.025l3.801,19.556c7.357,-1.431 14.739,-2.732 22.142,-3.905l-3.116,-19.676Z" style="fill:#2e2e2e;"/><path d="M61.721,381.026c-8.235,17.478 -15.703,35.306 -22.383,53.434l18.694,6.888c6.479,-17.584 13.723,-34.878 21.71,-51.83l-18.021,-8.492Z" style="fill:#2e2e2e;"/><path d="M20.538,493.96c-5.939,22.412 -10.7,45.12 -14.264,68.03l19.685,3.062c3.457,-22.223 8.075,-44.249 13.836,-65.989l-19.257,-5.103Z" style="fill:#2e2e2e;"/><path d="M2.02,594.649c-0.807,7.685 -1.481,15.383 -2.02,23.091l19.873,1.39c0.523,-7.477 1.176,-14.944 1.96,-22.399l-19.813,-2.082Z" style="fill:#2e2e2e;"/><path d="M6.862,769.848c6.775,41.986 17.568,83.225 32.23,123.147l18.701,-6.868c-14.222,-38.724 -24.691,-78.726 -31.263,-119.453l-19.668,3.174Z" style="fill:#2e2e2e;"/><path d="M112.709,1036.58c6.502,9.595 13.254,19.019 20.249,28.261l15.885,-12.024c-6.785,-8.964 -13.335,-18.105 -19.642,-27.412l-16.492,11.175Z" style="fill:#2e2e2e;"/><path d="M52.446,926.512c3.053,7.098 6.231,14.142 9.531,21.129l18.014,-8.507c-3.201,-6.778 -6.283,-13.61 -9.245,-20.495l-18.3,7.873Z" style="fill:#2e2e2e;"/><path d="M303.695,1222.88c32.532,20.884 66.825,38.888 102.488,53.806l7.688,-18.379c-34.594,-14.47 -67.858,-31.934 -99.413,-52.192l-10.763,16.765Z" style="fill:#2e2e2e;"/><path d="M253.607,1187.35c9.134,7.136 18.453,14.032 27.947,20.68l11.427,-16.319c-9.21,-6.449 -18.249,-13.138 -27.109,-20.06l-12.265,15.699Z" style="fill:#2e2e2e;"/><path d="M622.313,1326.91c54.056,3.273 108.308,-0.079 161.55,-9.98l-3.643,-19.586c-51.644,9.604 -104.269,12.855 -156.703,9.681l-1.204,19.885Z" style="fill:#2e2e2e;"/><path d="M1213.06,1035.28c4.319,-6.407 8.526,-12.889 12.619,-19.442l-16.897,-10.553c-3.97,6.357 -8.051,12.644 -12.241,18.859l16.519,11.136Z" style="fill:#2e2e2e;"/><path d="M493.2,1306.2c18.682,4.924 37.569,9.03 56.609,12.307l3.379,-19.633c-18.468,-3.179 -36.79,-7.162 -54.911,-11.938l-5.077,19.264Z" style="fill:#2e2e2e;"/><path d="M1132.01,1133.63c5.464,-5.464 10.832,-11.023 16.101,-16.674l-14.569,-13.587c-5.112,5.482 -10.319,10.874 -15.619,16.174l14.087,14.087Z" style="fill:#2e2e2e;"/><path d="M1034.15,1214.35c28.828,-19.473 56.081,-41.18 81.508,-64.923l-13.597,-14.561c-24.663,23.03 -51.099,44.087 -79.062,62.975l11.151,16.509Z" style="fill:#2e2e2e;"/><path d="M822.276,1308.6c7.5,-1.86 14.966,-3.851 22.397,-5.971l-5.467,-19.157c-7.208,2.057 -14.45,3.987 -21.725,5.791l4.795,19.337Z" style="fill:#2e2e2e;"/><path d="M918.027,1276.97c24.968,-10.412 49.277,-22.339 72.79,-35.716l-9.851,-17.316c-22.808,12.976 -46.387,24.545 -70.606,34.645l7.667,18.387Z" style="fill:#2e2e2e;"/></g></svg>