<?xml version="1.0" encoding="UTF-8" standalone="no"?><!DOCTYPE svg PUBLIC "-//W3C//DTD SVG 1.1//EN" "http://www.w3.org/Graphics/SVG/1.1/DTD/svg11.dtd"><svg width="100%" height="100%" viewBox="0 0 512 512" version="1.1" xmlns="http://www.w3.org/2000/svg" xmlns:xlink="http://www.w3.org/1999/xlink" xml:space="preserve" xmlns:serif="http://www.serif.com/" style="fill-rule:evenodd;clip-rule:evenodd;stroke-linejoin:round;stroke-miterlimit:2;fill:#7acef4;"><g id="Layer_5"><g><path d="M125.051,179.374c-26.562,38.177 -23.252,87.843 -2.964,128.409c0.483,0.973 0.989,1.93 1.489,2.889c0.318,0.605 0.617,1.226 0.949,1.824c0.188,0.358 0.398,0.71 0.592,1.052c0.345,0.647 0.7,1.262 1.058,1.893c0.631,1.111 1.279,2.215 1.936,3.319c0.365,0.608 0.726,1.213 1.104,1.821c0.733,1.18 1.483,2.353 2.248,3.517c0.319,0.496 0.631,0.996 0.96,1.475c1.058,1.578 2.14,3.156 3.254,4.704c0.029,0.039 0.062,0.078 0.092,0.118c0.177,0.25 0.371,0.493 0.549,0.743c0.963,1.331 1.962,2.645 2.964,3.947c0.371,0.473 0.746,0.946 1.117,1.423c0.898,1.13 1.811,2.251 2.741,3.369c0.349,0.417 0.697,0.838 1.049,1.248c1.246,1.466 2.521,2.932 3.822,4.365c0.023,0.026 0.053,0.056 0.076,0.079c0.052,0.062 0.098,0.099 0.144,0.158c1.269,1.387 2.567,2.744 3.885,4.098c0.408,0.417 0.825,0.838 1.242,1.256c1.019,1.025 2.055,2.027 3.1,3.04c0.424,0.401 0.844,0.815 1.268,1.202c1.397,1.315 2.807,2.607 4.247,3.865c0.026,0.027 0.042,0.046 0.069,0.056c0.243,0.217 0.496,0.428 0.739,0.628c1.269,1.101 2.56,2.192 3.858,3.264c0.53,0.427 1.065,0.851 1.598,1.275c1.061,0.851 2.136,1.689 3.217,2.514c0.572,0.437 1.144,0.874 1.719,1.308c1.193,0.874 2.396,1.742 3.609,2.587c0.443,0.322 0.871,0.627 1.314,0.933c0.122,0.085 0.234,0.177 0.359,0.26c1.153,0.788 2.327,1.557 3.503,2.317c0.506,0.338 1.009,0.683 1.519,1.012c1.804,1.14 3.634,2.268 5.488,3.362c0.503,0.286 1.012,0.569 1.515,0.855c1.361,0.785 2.731,1.557 4.118,2.31c0.75,0.404 1.522,0.786 2.278,1.17c0.983,0.516 1.955,1.035 2.948,1.532c0.227,0.115 0.46,0.223 0.683,0.332c0.398,0.193 0.802,0.381 1.207,0.585c1.544,0.739 3.099,1.459 4.67,2.162c0.335,0.148 0.657,0.296 0.989,0.441c1.798,0.785 3.615,1.547 5.449,2.267c0.441,0.178 0.884,0.345 1.328,0.523c1.696,0.651 3.415,1.298 5.14,1.903c0.22,0.075 0.431,0.148 0.648,0.22c1.896,0.664 3.809,1.278 5.735,1.877c0.46,0.134 0.92,0.282 1.383,0.417c1.962,0.592 3.898,1.295 5.923,1.67c128.452,23.423 165.764,-77.192 165.764,-77.192c-31.337,40.826 -86.962,51.596 -139.666,39.606c-1.998,-0.45 -3.934,-1.071 -5.883,-1.649c-0.496,-0.148 -0.979,-0.296 -1.469,-0.447c-1.903,-0.585 -3.786,-1.197 -5.662,-1.844c-0.257,-0.089 -0.516,-0.188 -0.779,-0.28c-1.68,-0.591 -3.339,-1.212 -4.996,-1.85c-0.467,-0.187 -0.933,-0.361 -1.4,-0.549c-1.814,-0.716 -3.615,-1.462 -5.393,-2.244c-0.368,-0.155 -0.717,-0.319 -1.078,-0.48c-1.529,-0.691 -3.04,-1.387 -4.552,-2.114c-0.434,-0.21 -0.871,-0.417 -1.311,-0.631c-1.18,-0.575 -2.354,-1.186 -3.517,-1.788c-0.782,-0.41 -1.574,-0.801 -2.347,-1.229c-1.426,-0.762 -2.823,-1.558 -4.216,-2.366c-0.474,-0.266 -0.95,-0.519 -1.427,-0.792c-1.85,-1.091 -3.681,-2.222 -5.492,-3.366c-0.499,-0.318 -0.989,-0.657 -1.482,-0.985c-1.311,-0.848 -2.619,-1.71 -3.904,-2.6c-0.428,-0.283 -0.842,-0.598 -1.259,-0.884c-1.242,-0.878 -2.472,-1.768 -3.694,-2.669c-0.552,-0.407 -1.098,-0.831 -1.637,-1.239c-1.117,-0.858 -2.231,-1.716 -3.332,-2.606c-0.497,-0.395 -0.996,-0.792 -1.486,-1.19c-1.4,-1.154 -2.784,-2.307 -4.151,-3.494c-0.141,-0.128 -0.299,-0.249 -0.453,-0.381c-1.476,-1.301 -2.932,-2.632 -4.365,-3.97c-0.417,-0.398 -0.822,-0.782 -1.229,-1.183c-1.065,-1.009 -2.11,-2.028 -3.136,-3.073c-0.41,-0.411 -0.824,-0.818 -1.229,-1.226c-1.308,-1.341 -2.59,-2.695 -3.848,-4.072c-0.063,-0.069 -0.128,-0.128 -0.191,-0.204c-1.331,-1.452 -2.629,-2.941 -3.904,-4.443c-0.345,-0.411 -0.681,-0.809 -1.022,-1.213c-0.95,-1.144 -1.89,-2.301 -2.807,-3.474c-0.345,-0.417 -0.69,-0.851 -1.032,-1.282c-1.104,-1.436 -2.186,-2.862 -3.244,-4.318c-29.26,-39.912 -39.774,-94.962 -16.387,-140.169" style="fill-rule:nonzero;"/><path d="M207.501,147.212c-19.21,27.643 -18.165,64.643 -3.181,93.877c2.514,4.9 5.337,9.656 8.496,14.182c2.875,4.124 6.067,9.031 9.886,12.344c1.387,1.525 2.833,3.014 4.312,4.473c0.374,0.384 0.756,0.749 1.137,1.127c1.433,1.387 2.892,2.758 4.401,4.085c0.062,0.053 0.118,0.112 0.18,0.155c0.017,0.02 0.033,0.026 0.043,0.046c1.67,1.459 3.392,2.869 5.143,4.253c0.388,0.295 0.773,0.608 1.167,0.91c1.755,1.344 3.543,2.669 5.38,3.928c0.056,0.039 0.102,0.075 0.155,0.121c0.808,0.556 1.636,1.078 2.455,1.614c0.394,0.256 0.769,0.529 1.163,0.769c1.308,0.838 2.636,1.656 3.987,2.442c0.191,0.118 0.378,0.213 0.562,0.325c1.163,0.671 2.343,1.331 3.526,1.972c0.411,0.233 0.832,0.437 1.253,0.654c0.818,0.427 1.633,0.861 2.464,1.279c0.122,0.059 0.25,0.115 0.372,0.167c1.692,0.835 3.401,1.637 5.143,2.396c0.372,0.164 0.756,0.312 1.137,0.47c1.391,0.592 2.801,1.167 4.214,1.712c0.601,0.227 1.206,0.444 1.807,0.664c1.282,0.477 2.574,0.911 3.872,1.348c0.588,0.187 1.163,0.378 1.752,0.559c1.847,0.571 3.671,1.298 5.597,1.616c99.175,16.433 122.076,-59.927 122.076,-59.927c-20.643,29.721 -60.611,43.909 -103.264,32.836c-1.893,-0.496 -3.76,-1.038 -5.613,-1.623c-0.569,-0.174 -1.128,-0.358 -1.69,-0.546c-1.318,-0.427 -2.629,-0.884 -3.93,-1.354c-0.595,-0.213 -1.19,-0.434 -1.775,-0.657c-1.426,-0.549 -2.833,-1.114 -4.23,-1.709c-0.381,-0.165 -0.766,-0.309 -1.14,-0.48c-1.752,-0.759 -3.474,-1.568 -5.177,-2.399c-0.874,-0.431 -1.732,-0.884 -2.593,-1.321c-0.496,-0.26 -0.999,-0.516 -1.498,-0.773c-1.105,-0.601 -2.202,-1.219 -3.287,-1.85c-0.256,-0.148 -0.523,-0.286 -0.782,-0.444c-1.344,-0.785 -2.669,-1.594 -3.977,-2.425c-0.404,-0.26 -0.792,-0.539 -1.196,-0.802c-0.865,-0.562 -1.729,-1.131 -2.577,-1.706c-1.827,-1.259 -3.609,-2.58 -5.36,-3.921c-0.405,-0.319 -0.812,-0.628 -1.207,-0.946c-18.671,-14.741 -33.467,-34.887 -40.503,-57.726c-7.375,-23.689 -5.788,-50.281 6.987,-71.86" style="fill-rule:nonzero;"/><path d="M276.845,123.18c-11.323,16.663 -12.437,37.362 -4.579,55.767c8.286,19.535 25.264,34.86 45.082,42.124c0.819,0.305 1.634,0.575 2.462,0.857c0.361,0.112 0.72,0.234 1.084,0.342c1.167,0.368 2.327,0.795 3.533,1.022c54.761,10.583 69.616,-28.103 73.57,-33.795c-13.011,18.733 -34.877,23.229 -61.705,16.718c-2.12,-0.519 -4.45,-1.281 -6.491,-2.005c-2.619,-0.933 -5.199,-1.998 -7.71,-3.201c-4.763,-2.29 -9.305,-5.068 -13.515,-8.246c-24.005,-18.214 -38.922,-52.966 -23.255,-81.267" style="fill-rule:nonzero;"/></g></g></svg>