<?xml version="1.0" encoding="UTF-8" standalone="no"?><!DOCTYPE svg PUBLIC "-//W3C//DTD SVG 1.1//EN" "http://www.w3.org/Graphics/SVG/1.1/DTD/svg11.dtd"><svg width="100%" height="100%" viewBox="0 0 128 128" version="1.1" xmlns="http://www.w3.org/2000/svg" xmlns:xlink="http://www.w3.org/1999/xlink" xml:space="preserve" xmlns:serif="http://www.serif.com/" style="fill-rule:evenodd;clip-rule:evenodd;stroke-linejoin:round;stroke-miterlimit:2;"><g><path d="M91.747,27.883l-60.243,74.744c-0.489,0.606 -1.283,0.874 -2.039,0.686c-0.755,-0.188 -1.334,-0.796 -1.482,-1.559l-6.813,-35.063c-0.113,-0.579 0.036,-1.177 0.406,-1.637l31.35,-38.896c0.37,-0.459 0.923,-0.731 1.513,-0.744l35.707,-0.786c0.777,-0.016 1.495,0.419 1.838,1.117c0.343,0.698 0.251,1.532 -0.237,2.138Zm-60.657,68.884l54.844,-68.046l-30.477,0.671l-30.183,37.448l5.816,29.927Z" style="fill-rule:nonzero;"/><path d="M106.867,101.719l-76.878,1.653l-0.085,-3.999l72.127,-1.551l-13.804,-70.811l3.926,-0.766l14.714,75.474Z" style="fill-rule:nonzero;"/><path d="M106.006,101.025c-0.533,0.661 -1.423,0.913 -2.223,0.631l-56.992,-20.124c-0.625,-0.22 -1.098,-0.735 -1.268,-1.375l-8.651,-32.784c-0.325,-1.228 0.751,-2.563 2.021,-2.507l33.876,1.487c0.661,0.028 1.265,0.383 1.613,0.947l31.767,51.42c0.447,0.721 0.389,1.644 -0.143,2.305Zm-56.885,-22.912l50.644,17.884l-28.23,-45.694l-30.102,-1.322l7.688,29.132Z" style="fill-rule:nonzero;"/><path d="M48.418,77.892l-24.324,-13.337l-1.923,3.508l24.323,13.337l1.924,-3.508Z"/><path d="M55.993,26.099l-3.019,2.624l18.198,20.938l3.019,-2.624l-18.198,-20.938Z"/></g></svg>